<?xml version="1.0" encoding="UTF-8"?>
<svg xmlns="http://www.w3.org/2000/svg" xmlns:xlink="http://www.w3.org/1999/xlink" width="73.96pt" height="24.85pt" viewBox="0 0 73.96 24.85" version="1.1">
<defs>
<clipPath id="clip1">
  <path d="M 63 2 L 73.960938 2 L 73.960938 16 L 63 16 Z M 63 2 "/>
</clipPath>
<clipPath id="clip2">
  <path d="M 2 5 L 17 5 L 17 24.851563 L 2 24.851563 Z M 2 5 "/>
</clipPath>
<clipPath id="clip3">
  <path d="M 2 14 L 17 14 L 17 24.851563 L 2 24.851563 Z M 2 14 "/>
</clipPath>
<clipPath id="clip4">
  <path d="M 0 0 L 17 0 L 17 24.851563 L 0 24.851563 Z M 0 0 "/>
</clipPath>
</defs>
<g id="surface1">
<path style=" stroke:none;fill-rule:nonzero;fill:rgb(13.699341%,9.399414%,8.198547%);fill-opacity:1;" d="M 32.789063 19.859375 C 32.757813 19.125 32.441406 18.746094 31.84375 18.726563 L 30.429688 18.726563 L 30.429688 20.996094 L 31.855469 20.996094 C 32.445313 20.953125 32.757813 20.574219 32.789063 19.859375 M 30.238281 18.664063 C 30.238281 18.613281 30.253906 18.570313 30.277344 18.535156 C 30.308594 18.496094 30.34375 18.476563 30.378906 18.476563 L 31.871094 18.476563 C 32.574219 18.519531 32.941406 18.980469 32.976563 19.859375 C 32.949219 20.675781 32.628906 21.125 32.019531 21.226563 L 33.035156 23.347656 C 33.0625 23.394531 33.074219 23.433594 33.074219 23.46875 C 33.074219 23.507813 33.058594 23.542969 33.03125 23.574219 C 33.015625 23.585938 33 23.59375 32.984375 23.59375 C 32.949219 23.59375 32.90625 23.550781 32.863281 23.480469 L 31.816406 21.277344 L 31.804688 21.246094 L 30.429688 21.246094 L 30.429688 23.507813 C 30.429688 23.539063 30.417969 23.566406 30.402344 23.59375 C 30.378906 23.617188 30.359375 23.628906 30.332031 23.628906 C 30.308594 23.628906 30.285156 23.617188 30.265625 23.59375 C 30.246094 23.566406 30.238281 23.539063 30.238281 23.507813 "/>
<path style=" stroke:none;fill-rule:nonzero;fill:rgb(13.699341%,9.399414%,8.198547%);fill-opacity:1;" d="M 30.464844 20.949219 L 31.859375 20.949219 C 32.425781 20.90625 32.71875 20.550781 32.753906 19.863281 C 32.71875 19.148438 32.421875 18.792969 31.84375 18.773438 L 30.464844 18.773438 Z M 30.429688 21.042969 L 30.394531 21.042969 L 30.394531 18.679688 L 31.84375 18.679688 C 32.464844 18.699219 32.792969 19.09375 32.824219 19.859375 L 32.824219 19.863281 C 32.792969 20.601563 32.46875 21 31.859375 21.042969 Z M 31.867188 18.527344 L 30.378906 18.527344 C 30.351563 18.527344 30.328125 18.539063 30.304688 18.566406 C 30.285156 18.59375 30.273438 18.628906 30.273438 18.664063 L 30.273438 23.503906 C 30.273438 23.523438 30.277344 23.542969 30.289063 23.558594 C 30.316406 23.589844 30.347656 23.589844 30.375 23.558594 C 30.386719 23.542969 30.394531 23.523438 30.394531 23.503906 L 30.394531 21.199219 L 31.824219 21.199219 L 31.847656 21.253906 L 32.894531 23.457031 C 32.941406 23.53125 32.972656 23.5625 33.015625 23.53125 C 33.035156 23.507813 33.039063 23.484375 33.039063 23.46875 C 33.039063 23.457031 33.035156 23.425781 33.007813 23.378906 L 31.957031 21.1875 L 32.015625 21.179688 C 32.609375 21.082031 32.910156 20.648438 32.9375 19.859375 C 32.90625 19.007813 32.558594 18.566406 31.867188 18.527344 M 30.332031 23.675781 C 30.296875 23.675781 30.265625 23.660156 30.238281 23.625 C 30.214844 23.59375 30.199219 23.550781 30.199219 23.503906 L 30.199219 18.664063 C 30.199219 18.601563 30.21875 18.546875 30.253906 18.5 C 30.289063 18.453125 30.332031 18.429688 30.378906 18.429688 L 31.871094 18.429688 C 32.59375 18.472656 32.980469 18.953125 33.011719 19.859375 C 32.984375 20.671875 32.667969 21.144531 32.078125 21.265625 L 33.070313 23.324219 C 33.097656 23.371094 33.113281 23.421875 33.113281 23.46875 C 33.113281 23.519531 33.09375 23.570313 33.054688 23.613281 C 32.96875 23.675781 32.90625 23.632813 32.832031 23.507813 L 31.78125 21.292969 L 30.464844 21.292969 L 30.464844 23.503906 C 30.464844 23.550781 30.449219 23.59375 30.425781 23.625 C 30.398438 23.660156 30.367188 23.675781 30.332031 23.675781 "/>
<path style=" stroke:none;fill-rule:nonzero;fill:rgb(13.699341%,9.399414%,8.198547%);fill-opacity:1;" d="M 36.996094 20.679688 C 36.78125 20.390625 36.519531 20.246094 36.214844 20.246094 C 35.90625 20.246094 35.644531 20.390625 35.4375 20.679688 C 35.265625 20.914063 35.160156 21.191406 35.132813 21.507813 L 37.300781 21.507813 C 37.265625 21.191406 37.164063 20.914063 36.996094 20.679688 M 35.4375 22.824219 C 35.644531 23.121094 35.90625 23.269531 36.214844 23.269531 C 36.519531 23.269531 36.78125 23.121094 36.996094 22.824219 C 37.078125 22.707031 37.128906 22.625 37.144531 22.582031 C 37.164063 22.535156 37.179688 22.507813 37.1875 22.496094 C 37.203125 22.484375 37.21875 22.476563 37.230469 22.472656 L 37.238281 22.472656 C 37.253906 22.472656 37.265625 22.480469 37.28125 22.492188 L 37.289063 22.5 C 37.308594 22.515625 37.328125 22.542969 37.339844 22.574219 C 37.339844 22.582031 37.34375 22.59375 37.34375 22.605469 C 37.34375 22.636719 37.335938 22.667969 37.316406 22.710938 C 37.296875 22.773438 37.234375 22.875 37.132813 23.011719 C 36.882813 23.355469 36.578125 23.53125 36.214844 23.53125 C 35.855469 23.53125 35.550781 23.355469 35.300781 23.011719 C 35.050781 22.671875 34.925781 22.25 34.925781 21.753906 C 34.925781 21.257813 35.050781 20.835938 35.300781 20.492188 C 35.550781 20.148438 35.855469 19.980469 36.214844 19.980469 C 36.578125 19.980469 36.882813 20.148438 37.132813 20.492188 C 37.382813 20.835938 37.511719 21.199219 37.511719 21.570313 C 37.511719 21.617188 37.496094 21.664063 37.464844 21.699219 C 37.4375 21.734375 37.40625 21.753906 37.367188 21.753906 L 35.113281 21.753906 C 35.113281 22.175781 35.222656 22.535156 35.4375 22.824219 "/>
<path style=" stroke:none;fill-rule:nonzero;fill:rgb(13.699341%,9.399414%,8.198547%);fill-opacity:1;" d="M 35.171875 21.457031 L 37.253906 21.457031 C 37.21875 21.175781 37.121094 20.925781 36.96875 20.714844 C 36.761719 20.4375 36.511719 20.296875 36.214844 20.296875 C 35.917969 20.296875 35.664063 20.4375 35.460938 20.714844 C 35.304688 20.925781 35.210938 21.175781 35.171875 21.457031 M 37.34375 21.554688 L 35.089844 21.554688 L 35.09375 21.5 C 35.128906 21.175781 35.234375 20.890625 35.40625 20.648438 C 35.625 20.351563 35.894531 20.199219 36.214844 20.199219 C 36.53125 20.199219 36.800781 20.351563 37.023438 20.648438 C 37.195313 20.890625 37.300781 21.175781 37.335938 21.5 Z M 36.214844 20.027344 C 35.867188 20.027344 35.570313 20.195313 35.324219 20.527344 C 35.085938 20.859375 34.960938 21.269531 34.960938 21.753906 C 34.960938 22.238281 35.085938 22.648438 35.324219 22.980469 C 35.570313 23.3125 35.867188 23.480469 36.214844 23.480469 C 36.5625 23.480469 36.863281 23.3125 37.105469 22.980469 C 37.203125 22.84375 37.265625 22.746094 37.285156 22.691406 C 37.300781 22.65625 37.304688 22.625 37.304688 22.605469 L 37.300781 22.589844 C 37.296875 22.570313 37.285156 22.550781 37.273438 22.539063 L 37.265625 22.535156 C 37.25 22.527344 37.246094 22.519531 37.238281 22.519531 C 37.226563 22.527344 37.21875 22.53125 37.210938 22.535156 C 37.210938 22.535156 37.199219 22.546875 37.179688 22.601563 C 37.160156 22.652344 37.109375 22.738281 37.023438 22.863281 C 36.800781 23.164063 36.53125 23.3125 36.214844 23.3125 C 35.898438 23.3125 35.625 23.164063 35.40625 22.863281 C 35.191406 22.558594 35.078125 22.1875 35.078125 21.753906 L 35.078125 21.707031 L 37.367188 21.707031 C 37.394531 21.707031 37.417969 21.695313 37.441406 21.664063 C 37.460938 21.636719 37.472656 21.605469 37.472656 21.570313 C 37.472656 21.210938 37.351563 20.859375 37.105469 20.527344 C 36.863281 20.195313 36.5625 20.027344 36.214844 20.027344 M 36.214844 23.578125 C 35.84375 23.578125 35.53125 23.398438 35.273438 23.046875 C 35.019531 22.695313 34.886719 22.261719 34.886719 21.753906 C 34.886719 21.246094 35.019531 20.8125 35.273438 20.460938 C 35.53125 20.109375 35.84375 19.929688 36.214844 19.929688 C 36.582031 19.929688 36.902344 20.109375 37.160156 20.460938 C 37.414063 20.8125 37.546875 21.183594 37.546875 21.570313 C 37.546875 21.632813 37.527344 21.6875 37.492188 21.730469 C 37.457031 21.777344 37.414063 21.800781 37.367188 21.800781 L 35.15625 21.800781 C 35.160156 22.1875 35.265625 22.523438 35.460938 22.792969 L 35.464844 22.792969 C 35.664063 23.078125 35.917969 23.222656 36.214844 23.222656 C 36.511719 23.222656 36.761719 23.078125 36.96875 22.792969 C 37.074219 22.644531 37.105469 22.585938 37.113281 22.558594 C 37.132813 22.503906 37.148438 22.476563 37.167969 22.457031 C 37.1875 22.441406 37.210938 22.433594 37.226563 22.425781 L 37.238281 22.425781 C 37.261719 22.425781 37.28125 22.4375 37.300781 22.457031 L 37.304688 22.457031 C 37.339844 22.480469 37.359375 22.515625 37.375 22.558594 C 37.378906 22.5625 37.378906 22.585938 37.378906 22.605469 C 37.378906 22.644531 37.367188 22.683594 37.351563 22.730469 C 37.328125 22.796875 37.269531 22.898438 37.160156 23.046875 C 36.902344 23.398438 36.582031 23.578125 36.214844 23.578125 "/>
<path style=" stroke:none;fill-rule:nonzero;fill:rgb(13.699341%,9.399414%,8.198547%);fill-opacity:1;" d="M 41.117188 22.5625 L 41.117188 22.351563 C 41.097656 22.144531 41.023438 21.96875 40.894531 21.808594 C 40.738281 21.632813 40.554688 21.542969 40.335938 21.542969 C 40.117188 21.542969 39.933594 21.636719 39.78125 21.8125 C 39.628906 21.992188 39.550781 22.207031 39.550781 22.457031 C 39.550781 22.707031 39.628906 22.921875 39.78125 23.101563 C 39.933594 23.28125 40.117188 23.367188 40.335938 23.367188 C 40.554688 23.367188 40.738281 23.28125 40.894531 23.101563 C 41.023438 22.949219 41.097656 22.765625 41.117188 22.5625 M 41.117188 23.15625 C 41.089844 23.199219 41.058594 23.238281 41.027344 23.273438 C 40.832031 23.503906 40.601563 23.617188 40.335938 23.617188 C 40.066406 23.617188 39.835938 23.503906 39.644531 23.277344 C 39.457031 23.050781 39.359375 22.777344 39.359375 22.457031 C 39.359375 22.132813 39.457031 21.859375 39.644531 21.636719 C 39.835938 21.410156 40.066406 21.292969 40.335938 21.292969 C 40.601563 21.292969 40.832031 21.40625 41.027344 21.628906 C 41.058594 21.671875 41.089844 21.710938 41.117188 21.753906 L 41.117188 20.898438 C 41.117188 20.707031 41.046875 20.542969 40.898438 20.402344 C 40.75 20.265625 40.574219 20.195313 40.367188 20.195313 C 40.15625 20.195313 39.976563 20.265625 39.832031 20.410156 C 39.714844 20.519531 39.648438 20.617188 39.636719 20.695313 L 39.609375 20.761719 C 39.601563 20.78125 39.589844 20.800781 39.578125 20.808594 C 39.5625 20.824219 39.546875 20.832031 39.53125 20.832031 C 39.515625 20.832031 39.5 20.824219 39.484375 20.816406 L 39.464844 20.804688 C 39.441406 20.789063 39.425781 20.761719 39.417969 20.730469 C 39.414063 20.71875 39.410156 20.707031 39.410156 20.6875 C 39.410156 20.667969 39.414063 20.65625 39.421875 20.636719 L 39.4375 20.601563 C 39.472656 20.488281 39.5625 20.359375 39.699219 20.207031 C 39.878906 20.035156 40.105469 19.949219 40.367188 19.949219 C 40.621094 19.949219 40.84375 20.046875 41.03125 20.246094 C 41.214844 20.445313 41.308594 20.664063 41.308594 20.902344 L 41.308594 23.503906 C 41.308594 23.539063 41.300781 23.566406 41.28125 23.59375 C 41.261719 23.617188 41.238281 23.628906 41.214844 23.628906 C 41.1875 23.628906 41.164063 23.617188 41.144531 23.59375 C 41.125 23.566406 41.117188 23.539063 41.117188 23.503906 "/>
<path style=" stroke:none;fill-rule:nonzero;fill:rgb(13.699341%,9.399414%,8.198547%);fill-opacity:1;" d="M 40.335938 21.589844 C 40.128906 21.589844 39.949219 21.675781 39.804688 21.847656 C 39.65625 22.019531 39.589844 22.21875 39.589844 22.457031 C 39.589844 22.695313 39.65625 22.894531 39.804688 23.066406 C 39.953125 23.238281 40.125 23.320313 40.335938 23.320313 C 40.542969 23.320313 40.722656 23.234375 40.867188 23.066406 C 40.992188 22.921875 41.0625 22.75 41.082031 22.558594 L 41.082031 22.351563 C 41.0625 22.164063 40.992188 21.992188 40.867188 21.84375 C 40.722656 21.675781 40.542969 21.589844 40.335938 21.589844 M 40.335938 23.414063 C 40.109375 23.414063 39.914063 23.320313 39.753906 23.136719 C 39.59375 22.949219 39.515625 22.722656 39.515625 22.457031 C 39.515625 22.195313 39.59375 21.96875 39.753906 21.777344 C 39.914063 21.589844 40.109375 21.496094 40.335938 21.496094 C 40.5625 21.496094 40.761719 21.589844 40.917969 21.773438 C 41.054688 21.941406 41.132813 22.132813 41.152344 22.34375 L 41.152344 22.566406 C 41.132813 22.78125 41.054688 22.976563 40.917969 23.136719 C 40.761719 23.320313 40.5625 23.414063 40.335938 23.414063 M 41.152344 23.03125 L 41.152344 23.503906 C 41.152344 23.523438 41.160156 23.542969 41.171875 23.558594 C 41.195313 23.589844 41.230469 23.589844 41.253906 23.558594 C 41.265625 23.542969 41.269531 23.523438 41.269531 23.503906 L 41.269531 20.90625 C 41.269531 20.675781 41.183594 20.472656 41.007813 20.28125 C 40.828125 20.09375 40.609375 19.996094 40.367188 19.996094 C 40.113281 19.996094 39.894531 20.078125 39.722656 20.25 C 39.589844 20.390625 39.507813 20.515625 39.46875 20.617188 L 39.453125 20.65625 C 39.453125 20.667969 39.449219 20.675781 39.449219 20.6875 C 39.449219 20.699219 39.449219 20.707031 39.453125 20.714844 C 39.457031 20.738281 39.46875 20.753906 39.484375 20.765625 L 39.5 20.773438 C 39.515625 20.78125 39.535156 20.785156 39.558594 20.769531 C 39.566406 20.761719 39.574219 20.753906 39.582031 20.738281 L 39.605469 20.675781 C 39.613281 20.59375 39.683594 20.488281 39.808594 20.371094 C 39.960938 20.222656 40.148438 20.148438 40.367188 20.148438 C 40.582031 20.148438 40.765625 20.21875 40.917969 20.363281 C 41.074219 20.515625 41.152344 20.695313 41.152344 20.898438 L 41.152344 21.882813 L 41.089844 21.785156 C 41.0625 21.746094 41.03125 21.703125 41 21.664063 C 40.816406 21.453125 40.59375 21.34375 40.335938 21.34375 C 40.078125 21.34375 39.855469 21.453125 39.671875 21.667969 C 39.488281 21.882813 39.398438 22.148438 39.398438 22.457031 C 39.398438 22.761719 39.488281 23.027344 39.671875 23.238281 C 39.855469 23.457031 40.078125 23.570313 40.335938 23.570313 C 40.59375 23.570313 40.816406 23.457031 41.003906 23.238281 C 41.035156 23.199219 41.066406 23.164063 41.089844 23.125 Z M 41.214844 23.675781 C 41.179688 23.675781 41.144531 23.660156 41.121094 23.625 C 41.09375 23.59375 41.082031 23.550781 41.082031 23.503906 L 41.082031 23.277344 C 41.070313 23.285156 41.0625 23.300781 41.050781 23.308594 C 40.851563 23.542969 40.609375 23.664063 40.335938 23.664063 C 40.058594 23.664063 39.820313 23.546875 39.621094 23.3125 C 39.421875 23.078125 39.320313 22.792969 39.320313 22.457031 C 39.320313 22.121094 39.421875 21.832031 39.621094 21.597656 C 39.820313 21.367188 40.058594 21.25 40.335938 21.25 C 40.609375 21.25 40.851563 21.363281 41.050781 21.59375 C 41.058594 21.609375 41.070313 21.621094 41.082031 21.632813 L 41.082031 20.898438 C 41.082031 20.722656 41.015625 20.574219 40.875 20.441406 C 40.734375 20.3125 40.566406 20.242188 40.367188 20.242188 C 40.164063 20.242188 39.992188 20.3125 39.855469 20.445313 C 39.71875 20.574219 39.679688 20.65625 39.671875 20.703125 L 39.644531 20.78125 C 39.632813 20.8125 39.613281 20.835938 39.597656 20.851563 C 39.558594 20.882813 39.515625 20.886719 39.46875 20.863281 L 39.449219 20.847656 C 39.414063 20.824219 39.394531 20.789063 39.382813 20.746094 C 39.375 20.726563 39.375 20.707031 39.375 20.6875 C 39.375 20.664063 39.378906 20.640625 39.390625 20.617188 L 39.402344 20.582031 C 39.441406 20.460938 39.53125 20.324219 39.675781 20.171875 C 39.863281 19.988281 40.097656 19.902344 40.367188 19.902344 C 40.628906 19.902344 40.859375 20.003906 41.054688 20.210938 C 41.246094 20.417969 41.347656 20.652344 41.347656 20.90625 L 41.347656 23.503906 C 41.347656 23.550781 41.332031 23.59375 41.304688 23.625 C 41.277344 23.660156 41.246094 23.675781 41.214844 23.675781 "/>
<path style=" stroke:none;fill-rule:nonzero;fill:rgb(13.699341%,9.399414%,8.198547%);fill-opacity:1;" d="M 43.800781 18.527344 C 43.835938 18.527344 43.871094 18.546875 43.898438 18.582031 C 43.925781 18.621094 43.941406 18.664063 43.941406 18.714844 L 43.941406 23.503906 C 43.941406 23.539063 43.933594 23.566406 43.914063 23.59375 C 43.894531 23.617188 43.871094 23.628906 43.847656 23.628906 C 43.820313 23.628906 43.800781 23.617188 43.777344 23.59375 C 43.761719 23.566406 43.75 23.539063 43.75 23.503906 L 43.75 18.777344 L 43.253906 18.777344 C 43.230469 18.777344 43.207031 18.761719 43.1875 18.738281 C 43.167969 18.714844 43.15625 18.683594 43.15625 18.652344 C 43.15625 18.621094 43.167969 18.589844 43.1875 18.566406 C 43.207031 18.539063 43.230469 18.527344 43.253906 18.527344 "/>
<path style=" stroke:none;fill-rule:nonzero;fill:rgb(13.699341%,9.399414%,8.198547%);fill-opacity:1;" d="M 43.253906 18.574219 C 43.238281 18.574219 43.226563 18.582031 43.214844 18.597656 C 43.203125 18.613281 43.195313 18.628906 43.195313 18.652344 C 43.195313 18.671875 43.203125 18.6875 43.214844 18.707031 C 43.226563 18.722656 43.238281 18.726563 43.253906 18.726563 L 43.789063 18.726563 L 43.789063 23.503906 C 43.789063 23.523438 43.792969 23.542969 43.808594 23.558594 C 43.828125 23.589844 43.863281 23.589844 43.886719 23.554688 C 43.898438 23.542969 43.902344 23.523438 43.902344 23.503906 L 43.902344 18.714844 C 43.902344 18.675781 43.894531 18.644531 43.871094 18.617188 C 43.851563 18.589844 43.828125 18.574219 43.800781 18.574219 Z M 43.847656 23.675781 C 43.8125 23.675781 43.78125 23.660156 43.753906 23.625 C 43.726563 23.59375 43.714844 23.550781 43.714844 23.503906 L 43.714844 18.824219 L 43.253906 18.824219 C 43.21875 18.824219 43.1875 18.804688 43.160156 18.773438 C 43.136719 18.738281 43.121094 18.695313 43.121094 18.652344 C 43.121094 18.609375 43.136719 18.5625 43.160156 18.53125 C 43.1875 18.496094 43.21875 18.480469 43.253906 18.480469 L 43.800781 18.480469 C 43.847656 18.480469 43.890625 18.503906 43.925781 18.550781 C 43.960938 18.59375 43.980469 18.652344 43.980469 18.714844 L 43.980469 23.503906 C 43.980469 23.550781 43.964844 23.59375 43.941406 23.625 C 43.914063 23.660156 43.882813 23.675781 43.847656 23.675781 "/>
<path style=" stroke:none;fill-rule:nonzero;fill:rgb(13.699341%,9.399414%,8.198547%);fill-opacity:1;" d="M 49.898438 18.726563 L 49.898438 20.675781 L 51.425781 20.675781 C 51.453125 20.675781 51.472656 20.6875 51.492188 20.710938 C 51.511719 20.738281 51.519531 20.765625 51.519531 20.796875 C 51.519531 20.832031 51.511719 20.859375 51.492188 20.886719 C 51.472656 20.910156 51.453125 20.921875 51.425781 20.921875 L 49.898438 20.921875 L 49.898438 23.503906 C 49.898438 23.542969 49.886719 23.570313 49.867188 23.59375 C 49.847656 23.617188 49.828125 23.628906 49.800781 23.628906 C 49.777344 23.628906 49.753906 23.617188 49.734375 23.59375 C 49.714844 23.570313 49.703125 23.542969 49.703125 23.503906 L 49.703125 18.664063 C 49.703125 18.613281 49.71875 18.570313 49.75 18.535156 C 49.777344 18.496094 49.8125 18.476563 49.847656 18.476563 L 52.023438 18.476563 C 52.046875 18.476563 52.070313 18.492188 52.089844 18.511719 C 52.109375 18.539063 52.117188 18.566406 52.117188 18.601563 C 52.117188 18.636719 52.109375 18.664063 52.089844 18.6875 C 52.070313 18.714844 52.046875 18.726563 52.023438 18.726563 "/>
<path style=" stroke:none;fill-rule:nonzero;fill:rgb(13.699341%,9.399414%,8.198547%);fill-opacity:1;" d="M 49.847656 18.527344 C 49.820313 18.527344 49.796875 18.539063 49.773438 18.566406 C 49.75 18.59375 49.742188 18.628906 49.742188 18.664063 L 49.742188 23.503906 C 49.742188 23.527344 49.746094 23.546875 49.761719 23.558594 C 49.785156 23.589844 49.820313 23.589844 49.84375 23.558594 C 49.851563 23.546875 49.859375 23.53125 49.859375 23.503906 L 49.859375 20.875 L 51.425781 20.875 C 51.441406 20.875 51.453125 20.867188 51.46875 20.851563 C 51.476563 20.835938 51.484375 20.820313 51.484375 20.800781 C 51.484375 20.78125 51.476563 20.761719 51.46875 20.746094 C 51.453125 20.730469 51.441406 20.722656 51.425781 20.722656 L 49.859375 20.722656 L 49.859375 18.675781 L 52.023438 18.675781 C 52.039063 18.675781 52.050781 18.671875 52.0625 18.65625 C 52.074219 18.636719 52.082031 18.621094 52.082031 18.601563 C 52.082031 18.582031 52.074219 18.566406 52.0625 18.546875 C 52.050781 18.53125 52.039063 18.527344 52.023438 18.527344 Z M 49.800781 23.675781 C 49.765625 23.675781 49.734375 23.660156 49.710938 23.628906 C 49.679688 23.597656 49.667969 23.550781 49.667969 23.503906 L 49.667969 18.664063 C 49.667969 18.601563 49.6875 18.546875 49.722656 18.5 C 49.761719 18.453125 49.800781 18.429688 49.847656 18.429688 L 52.023438 18.429688 C 52.058594 18.429688 52.089844 18.449219 52.117188 18.480469 C 52.140625 18.511719 52.15625 18.554688 52.15625 18.601563 C 52.15625 18.648438 52.140625 18.6875 52.113281 18.722656 C 52.089844 18.757813 52.058594 18.773438 52.023438 18.773438 L 49.933594 18.773438 L 49.933594 20.625 L 51.425781 20.625 C 51.460938 20.625 51.492188 20.644531 51.519531 20.675781 C 51.542969 20.714844 51.558594 20.753906 51.558594 20.800781 C 51.558594 20.84375 51.542969 20.886719 51.519531 20.921875 C 51.492188 20.953125 51.460938 20.96875 51.425781 20.96875 L 49.933594 20.96875 L 49.933594 23.503906 C 49.933594 23.550781 49.917969 23.597656 49.894531 23.628906 C 49.867188 23.660156 49.835938 23.675781 49.800781 23.675781 "/>
<path style=" stroke:none;fill-rule:nonzero;fill:rgb(13.699341%,9.399414%,8.198547%);fill-opacity:1;" d="M 54.476563 20.675781 C 54.265625 20.980469 54.160156 21.34375 54.160156 21.765625 C 54.160156 22.183594 54.269531 22.546875 54.480469 22.855469 C 54.699219 23.15625 54.960938 23.3125 55.265625 23.3125 C 55.578125 23.3125 55.84375 23.15625 56.058594 22.855469 C 56.273438 22.546875 56.378906 22.183594 56.378906 21.765625 C 56.378906 21.34375 56.273438 20.980469 56.058594 20.675781 C 55.847656 20.367188 55.582031 20.21875 55.265625 20.21875 C 54.953125 20.21875 54.691406 20.367188 54.476563 20.675781 M 55.265625 19.96875 C 55.640625 19.96875 55.953125 20.144531 56.199219 20.503906 C 56.449219 20.863281 56.574219 21.28125 56.574219 21.765625 C 56.574219 22.25 56.445313 22.667969 56.195313 23.027344 C 55.945313 23.382813 55.632813 23.5625 55.265625 23.5625 C 54.902344 23.5625 54.59375 23.382813 54.34375 23.027344 C 54.09375 22.667969 53.96875 22.25 53.96875 21.765625 C 53.96875 21.28125 54.09375 20.863281 54.339844 20.503906 C 54.589844 20.144531 54.898438 19.96875 55.265625 19.96875 "/>
<path style=" stroke:none;fill-rule:nonzero;fill:rgb(13.699341%,9.399414%,8.198547%);fill-opacity:1;" d="M 55.265625 20.265625 C 54.964844 20.265625 54.707031 20.410156 54.503906 20.707031 C 54.300781 21 54.199219 21.359375 54.199219 21.765625 C 54.199219 22.171875 54.300781 22.523438 54.507813 22.820313 C 54.714844 23.117188 54.972656 23.265625 55.265625 23.265625 C 55.566406 23.265625 55.824219 23.117188 56.03125 22.820313 C 56.238281 22.523438 56.34375 22.171875 56.34375 21.765625 C 56.34375 21.359375 56.238281 21 56.035156 20.707031 C 55.828125 20.410156 55.570313 20.265625 55.265625 20.265625 M 55.265625 23.359375 C 54.949219 23.359375 54.675781 23.199219 54.453125 22.886719 C 54.234375 22.570313 54.121094 22.195313 54.121094 21.765625 C 54.121094 21.332031 54.230469 20.953125 54.449219 20.644531 C 54.667969 20.324219 54.945313 20.167969 55.265625 20.167969 C 55.589844 20.167969 55.867188 20.324219 56.089844 20.644531 C 56.308594 20.957031 56.417969 21.332031 56.417969 21.765625 C 56.417969 22.195313 56.304688 22.570313 56.085938 22.886719 C 55.863281 23.199219 55.585938 23.359375 55.265625 23.359375 M 55.265625 20.015625 C 54.910156 20.015625 54.605469 20.191406 54.367188 20.535156 C 54.125 20.882813 54.003906 21.300781 54.003906 21.765625 C 54.003906 22.238281 54.128906 22.648438 54.371094 22.996094 C 54.613281 23.335938 54.914063 23.511719 55.265625 23.511719 C 55.621094 23.511719 55.921875 23.335938 56.167969 22.996094 C 56.410156 22.648438 56.535156 22.238281 56.535156 21.765625 C 56.535156 21.300781 56.414063 20.882813 56.171875 20.535156 C 55.933594 20.191406 55.628906 20.015625 55.265625 20.015625 M 55.265625 23.609375 C 54.890625 23.609375 54.574219 23.421875 54.316406 23.058594 C 54.058594 22.695313 53.929688 22.261719 53.929688 21.765625 C 53.929688 21.273438 54.058594 20.835938 54.3125 20.472656 C 54.570313 20.105469 54.886719 19.917969 55.265625 19.917969 C 55.648438 19.917969 55.972656 20.105469 56.226563 20.472656 C 56.480469 20.835938 56.609375 21.273438 56.609375 21.765625 C 56.609375 22.261719 56.476563 22.695313 56.222656 23.058594 C 55.964844 23.421875 55.644531 23.609375 55.265625 23.609375 "/>
<path style=" stroke:none;fill-rule:nonzero;fill:rgb(13.699341%,9.399414%,8.198547%);fill-opacity:1;" d="M 58.929688 20.675781 C 58.71875 20.980469 58.613281 21.34375 58.613281 21.765625 C 58.613281 22.183594 58.71875 22.546875 58.933594 22.855469 C 59.152344 23.15625 59.410156 23.3125 59.71875 23.3125 C 60.035156 23.3125 60.296875 23.15625 60.511719 22.855469 C 60.726563 22.546875 60.835938 22.183594 60.835938 21.765625 C 60.835938 21.34375 60.726563 20.980469 60.515625 20.675781 C 60.300781 20.367188 60.035156 20.21875 59.71875 20.21875 C 59.40625 20.21875 59.144531 20.367188 58.929688 20.675781 M 59.71875 19.96875 C 60.09375 19.96875 60.40625 20.144531 60.652344 20.503906 C 60.902344 20.863281 61.027344 21.28125 61.027344 21.765625 C 61.027344 22.25 60.898438 22.667969 60.648438 23.027344 C 60.398438 23.382813 60.085938 23.5625 59.71875 23.5625 C 59.355469 23.5625 59.046875 23.382813 58.796875 23.027344 C 58.542969 22.667969 58.421875 22.25 58.421875 21.765625 C 58.421875 21.28125 58.542969 20.863281 58.792969 20.503906 C 59.042969 20.144531 59.351563 19.96875 59.71875 19.96875 "/>
<path style=" stroke:none;fill-rule:nonzero;fill:rgb(13.699341%,9.399414%,8.198547%);fill-opacity:1;" d="M 59.71875 20.265625 C 59.417969 20.265625 59.160156 20.410156 58.957031 20.707031 C 58.75 21 58.648438 21.359375 58.648438 21.765625 C 58.648438 22.171875 58.753906 22.523438 58.960938 22.820313 C 59.167969 23.117188 59.425781 23.265625 59.71875 23.265625 C 60.019531 23.265625 60.277344 23.117188 60.484375 22.820313 C 60.691406 22.523438 60.796875 22.171875 60.796875 21.765625 C 60.796875 21.359375 60.691406 21 60.488281 20.707031 C 60.28125 20.410156 60.023438 20.265625 59.71875 20.265625 M 59.71875 23.359375 C 59.402344 23.359375 59.128906 23.199219 58.910156 22.886719 C 58.6875 22.570313 58.574219 22.195313 58.574219 21.765625 C 58.574219 21.332031 58.683594 20.953125 58.902344 20.644531 C 59.121094 20.324219 59.398438 20.167969 59.71875 20.167969 C 60.042969 20.167969 60.320313 20.324219 60.539063 20.644531 C 60.757813 20.957031 60.871094 21.332031 60.871094 21.765625 C 60.871094 22.195313 60.757813 22.570313 60.539063 22.886719 C 60.316406 23.199219 60.039063 23.359375 59.71875 23.359375 M 59.71875 20.015625 C 59.363281 20.015625 59.058594 20.191406 58.820313 20.535156 C 58.578125 20.882813 58.457031 21.300781 58.457031 21.765625 C 58.457031 22.238281 58.582031 22.648438 58.824219 22.996094 C 59.066406 23.335938 59.367188 23.511719 59.71875 23.511719 C 60.074219 23.511719 60.375 23.335938 60.621094 22.996094 C 60.863281 22.648438 60.988281 22.238281 60.988281 21.765625 C 60.988281 21.300781 60.867188 20.882813 60.625 20.535156 C 60.382813 20.191406 60.082031 20.015625 59.71875 20.015625 M 59.71875 23.609375 C 59.34375 23.609375 59.027344 23.421875 58.769531 23.058594 C 58.515625 22.695313 58.386719 22.261719 58.386719 21.765625 C 58.386719 21.273438 58.515625 20.835938 58.765625 20.472656 C 59.023438 20.105469 59.34375 19.917969 59.71875 19.917969 C 60.101563 19.917969 60.425781 20.105469 60.679688 20.472656 C 60.933594 20.835938 61.0625 21.273438 61.0625 21.765625 C 61.0625 22.261719 60.929688 22.695313 60.675781 23.058594 C 60.417969 23.421875 60.097656 23.609375 59.71875 23.609375 "/>
<path style=" stroke:none;fill-rule:nonzero;fill:rgb(13.699341%,9.399414%,8.198547%);fill-opacity:1;" d="M 64.710938 22.261719 L 64.710938 21.582031 C 64.667969 21.300781 64.589844 21.042969 64.472656 20.8125 C 64.3125 20.503906 64.117188 20.351563 63.890625 20.351563 C 63.660156 20.351563 63.464844 20.503906 63.304688 20.8125 C 63.148438 21.125 63.066406 21.480469 63.066406 21.882813 C 63.066406 22.3125 63.148438 22.664063 63.304688 22.941406 C 63.464844 23.21875 63.660156 23.355469 63.890625 23.355469 C 64.117188 23.355469 64.3125 23.21875 64.472656 22.941406 C 64.582031 22.746094 64.660156 22.523438 64.710938 22.261719 M 64.710938 18.515625 C 64.710938 18.480469 64.71875 18.453125 64.738281 18.429688 C 64.757813 18.40625 64.78125 18.390625 64.804688 18.390625 C 64.832031 18.390625 64.855469 18.40625 64.871094 18.429688 C 64.890625 18.453125 64.902344 18.480469 64.902344 18.515625 L 64.902344 23.503906 C 64.902344 23.539063 64.890625 23.566406 64.871094 23.59375 C 64.855469 23.617188 64.832031 23.628906 64.804688 23.628906 C 64.78125 23.628906 64.757813 23.617188 64.738281 23.59375 C 64.71875 23.566406 64.710938 23.539063 64.710938 23.503906 L 64.710938 22.890625 C 64.679688 22.960938 64.644531 23.03125 64.605469 23.09375 C 64.410156 23.433594 64.171875 23.605469 63.890625 23.605469 C 63.605469 23.605469 63.367188 23.433594 63.167969 23.09375 C 62.972656 22.753906 62.875 22.34375 62.875 21.855469 C 62.875 21.363281 62.972656 20.953125 63.167969 20.613281 C 63.367188 20.273438 63.605469 20.105469 63.890625 20.105469 C 64.171875 20.105469 64.410156 20.273438 64.605469 20.613281 C 64.644531 20.679688 64.679688 20.746094 64.710938 20.816406 "/>
<path style=" stroke:none;fill-rule:nonzero;fill:rgb(13.699341%,9.399414%,8.198547%);fill-opacity:1;" d="M 63.890625 20.398438 C 63.667969 20.398438 63.488281 20.542969 63.335938 20.839844 C 63.179688 21.140625 63.101563 21.492188 63.101563 21.886719 C 63.101563 22.296875 63.179688 22.644531 63.332031 22.910156 C 63.488281 23.175781 63.667969 23.308594 63.890625 23.308594 C 64.105469 23.308594 64.289063 23.175781 64.441406 22.910156 C 64.542969 22.726563 64.625 22.507813 64.671875 22.257813 L 64.671875 21.582031 C 64.632813 21.316406 64.554688 21.0625 64.441406 20.835938 C 64.285156 20.542969 64.105469 20.398438 63.890625 20.398438 M 63.890625 23.402344 C 63.648438 23.402344 63.441406 23.257813 63.277344 22.96875 C 63.113281 22.683594 63.03125 22.320313 63.03125 21.886719 C 63.03125 21.472656 63.113281 21.105469 63.273438 20.785156 C 63.441406 20.46875 63.648438 20.304688 63.890625 20.304688 C 64.128906 20.304688 64.332031 20.464844 64.503906 20.785156 C 64.621094 21.019531 64.703125 21.285156 64.746094 21.570313 L 64.746094 22.277344 C 64.695313 22.539063 64.613281 22.773438 64.5 22.96875 C 64.332031 23.257813 64.128906 23.402344 63.890625 23.402344 M 64.746094 22.714844 L 64.746094 23.503906 C 64.746094 23.523438 64.75 23.542969 64.765625 23.558594 C 64.789063 23.589844 64.820313 23.585938 64.847656 23.558594 C 64.859375 23.542969 64.863281 23.523438 64.863281 23.503906 L 64.863281 18.515625 C 64.863281 18.496094 64.859375 18.476563 64.847656 18.460938 C 64.820313 18.429688 64.789063 18.429688 64.765625 18.460938 C 64.75 18.476563 64.746094 18.496094 64.746094 18.515625 L 64.746094 20.996094 L 64.679688 20.839844 C 64.648438 20.773438 64.613281 20.710938 64.574219 20.644531 C 64.386719 20.3125 64.160156 20.148438 63.890625 20.148438 C 63.613281 20.148438 63.386719 20.3125 63.199219 20.644531 C 63.007813 20.96875 62.910156 21.378906 62.910156 21.855469 C 62.910156 22.328125 63.007813 22.734375 63.199219 23.066406 C 63.386719 23.394531 63.613281 23.554688 63.890625 23.554688 C 64.160156 23.554688 64.386719 23.394531 64.574219 23.066406 C 64.613281 23 64.648438 22.933594 64.679688 22.867188 Z M 64.804688 23.675781 C 64.769531 23.675781 64.738281 23.660156 64.710938 23.625 C 64.6875 23.59375 64.671875 23.550781 64.671875 23.503906 L 64.671875 23.050781 C 64.660156 23.074219 64.648438 23.097656 64.636719 23.121094 C 64.433594 23.472656 64.183594 23.648438 63.890625 23.648438 C 63.59375 23.648438 63.34375 23.472656 63.140625 23.121094 C 62.941406 22.777344 62.839844 22.351563 62.839844 21.855469 C 62.839844 21.359375 62.941406 20.929688 63.140625 20.582031 C 63.34375 20.234375 63.59375 20.058594 63.890625 20.058594 C 64.183594 20.058594 64.433594 20.234375 64.636719 20.582031 C 64.648438 20.609375 64.660156 20.632813 64.671875 20.652344 L 64.671875 18.515625 C 64.671875 18.46875 64.6875 18.425781 64.710938 18.394531 C 64.765625 18.324219 64.847656 18.324219 64.898438 18.394531 C 64.921875 18.425781 64.9375 18.46875 64.9375 18.515625 L 64.9375 23.503906 C 64.9375 23.550781 64.921875 23.59375 64.898438 23.625 C 64.871094 23.660156 64.84375 23.675781 64.804688 23.675781 "/>
<path style=" stroke:none;fill-rule:nonzero;fill:rgb(13.699341%,9.399414%,8.198547%);fill-opacity:1;" d="M 52.875 12.769531 L 56.039063 12.769531 L 56.039063 10.398438 L 52.875 10.398438 Z M 52.875 9.828125 L 56.039063 9.828125 L 56.039063 7.980469 L 52.875 7.980469 Z M 52.875 7.414063 L 56.039063 7.414063 L 56.039063 5.71875 L 52.875 5.71875 Z M 52.289063 13.34375 L 49.84375 13.34375 C 49.726563 13.34375 49.660156 13.273438 49.636719 13.132813 L 49.636719 13.078125 C 49.636719 12.910156 49.691406 12.816406 49.796875 12.785156 L 49.84375 12.769531 L 52.441406 12.769531 L 52.441406 5.71875 L 50.386719 5.71875 C 50.28125 5.71875 50.210938 5.648438 50.183594 5.507813 L 50.183594 5.46875 C 50.183594 5.292969 50.238281 5.191406 50.34375 5.164063 L 50.386719 5.148438 L 52.441406 5.148438 L 52.441406 2.980469 C 52.441406 2.847656 52.496094 2.761719 52.609375 2.734375 L 52.640625 2.734375 C 52.769531 2.734375 52.84375 2.796875 52.867188 2.929688 L 52.875 2.941406 L 52.875 5.148438 L 56.039063 5.148438 L 56.039063 2.941406 C 56.039063 2.804688 56.097656 2.71875 56.210938 2.691406 L 56.242188 2.691406 C 56.371094 2.691406 56.449219 2.757813 56.46875 2.886719 L 56.476563 2.898438 L 56.476563 5.148438 L 58.871094 5.148438 C 58.980469 5.148438 59.042969 5.21875 59.066406 5.359375 L 59.066406 5.398438 C 59.066406 5.574219 59.015625 5.675781 58.914063 5.703125 L 58.90625 5.71875 L 56.476563 5.71875 L 56.476563 12.769531 L 59.398438 12.769531 C 59.503906 12.769531 59.570313 12.84375 59.589844 12.980469 L 59.589844 13.023438 C 59.589844 13.195313 59.539063 13.300781 59.441406 13.328125 L 59.429688 13.34375 L 55.859375 13.34375 C 56.441406 14.089844 57.363281 14.792969 58.617188 15.449219 C 58.730469 15.527344 58.765625 15.632813 58.722656 15.769531 L 58.722656 15.78125 C 58.6875 15.933594 58.628906 16.007813 58.539063 16.007813 C 58.519531 16.007813 58.5 16.003906 58.476563 15.992188 L 58.46875 15.980469 L 58.457031 15.980469 C 56.988281 15.199219 55.945313 14.355469 55.324219 13.441406 L 55.292969 13.34375 L 52.835938 13.34375 C 52.835938 13.398438 52.820313 13.445313 52.789063 13.480469 C 52.144531 14.378906 51.121094 15.21875 49.722656 16.007813 C 49.695313 16.019531 49.671875 16.019531 49.648438 16.019531 C 49.570313 16.019531 49.515625 15.96875 49.476563 15.867188 C 49.457031 15.8125 49.445313 15.757813 49.445313 15.699219 C 49.445313 15.628906 49.472656 15.5625 49.53125 15.507813 C 49.542969 15.488281 49.558594 15.480469 49.5625 15.480469 C 50.738281 14.820313 51.648438 14.109375 52.289063 13.34375 "/>
<path style=" stroke:none;fill-rule:nonzero;fill:rgb(13.699341%,9.399414%,8.198547%);fill-opacity:1;" d="M 52.914063 7.363281 L 56.003906 7.363281 L 56.003906 5.765625 L 52.914063 5.765625 Z M 56.078125 7.460938 L 52.839844 7.460938 L 52.839844 5.671875 L 56.078125 5.671875 Z M 52.914063 9.78125 L 56.003906 9.78125 L 56.003906 8.03125 L 52.914063 8.03125 Z M 56.078125 9.875 L 52.839844 9.875 L 52.839844 7.933594 L 56.078125 7.933594 Z M 52.914063 12.722656 L 56.003906 12.722656 L 56.003906 10.445313 L 52.914063 10.445313 Z M 56.078125 12.820313 L 52.839844 12.820313 L 52.839844 10.347656 L 56.078125 10.347656 Z M 49.566406 15.527344 C 49.566406 15.527344 49.5625 15.53125 49.558594 15.539063 C 49.507813 15.589844 49.484375 15.644531 49.484375 15.699219 C 49.484375 15.753906 49.492188 15.796875 49.511719 15.847656 C 49.539063 15.933594 49.585938 15.972656 49.648438 15.972656 C 49.667969 15.972656 49.691406 15.96875 49.714844 15.960938 C 51.097656 15.179688 52.121094 14.335938 52.765625 13.449219 C 52.785156 13.421875 52.796875 13.382813 52.796875 13.34375 L 52.796875 13.292969 L 55.320313 13.292969 L 55.355469 13.414063 C 55.96875 14.316406 57.015625 15.164063 58.464844 15.929688 L 58.484375 15.929688 L 58.496094 15.949219 C 58.515625 15.957031 58.527344 15.960938 58.539063 15.960938 C 58.566406 15.960938 58.640625 15.960938 58.6875 15.777344 L 58.691406 15.753906 C 58.726563 15.636719 58.699219 15.558594 58.601563 15.496094 C 57.347656 14.835938 56.417969 14.125 55.832031 13.375 L 55.769531 13.292969 L 59.414063 13.292969 L 59.421875 13.28125 L 59.433594 13.28125 C 59.484375 13.265625 59.554688 13.222656 59.554688 13.023438 L 59.554688 12.980469 C 59.535156 12.871094 59.488281 12.820313 59.398438 12.820313 L 56.441406 12.820313 L 56.441406 5.671875 L 58.890625 5.671875 L 58.898438 5.664063 L 58.910156 5.660156 C 58.960938 5.644531 59.027344 5.601563 59.027344 5.398438 L 59.027344 5.359375 C 59.011719 5.25 58.964844 5.195313 58.871094 5.195313 L 56.441406 5.195313 L 56.441406 2.921875 L 56.433594 2.910156 L 56.429688 2.898438 C 56.421875 2.828125 56.390625 2.738281 56.242188 2.738281 L 56.210938 2.738281 C 56.121094 2.761719 56.078125 2.828125 56.078125 2.941406 L 56.078125 5.195313 L 52.839844 5.195313 L 52.839844 2.960938 L 52.832031 2.953125 L 52.832031 2.9375 C 52.820313 2.871094 52.789063 2.78125 52.640625 2.78125 L 52.609375 2.78125 C 52.519531 2.804688 52.472656 2.871094 52.472656 2.980469 L 52.472656 5.195313 L 50.386719 5.195313 L 50.351563 5.210938 C 50.292969 5.226563 50.21875 5.265625 50.21875 5.46875 L 50.21875 5.503906 C 50.242188 5.617188 50.296875 5.671875 50.386719 5.671875 L 52.472656 5.671875 L 52.472656 12.820313 L 49.84375 12.820313 L 49.804688 12.832031 C 49.71875 12.855469 49.675781 12.933594 49.675781 13.078125 L 49.675781 13.132813 C 49.691406 13.238281 49.746094 13.292969 49.84375 13.292969 L 52.382813 13.292969 L 52.3125 13.378906 C 51.671875 14.144531 50.753906 14.867188 49.578125 15.523438 Z M 49.648438 16.070313 C 49.558594 16.070313 49.488281 16.007813 49.445313 15.886719 C 49.421875 15.828125 49.410156 15.765625 49.410156 15.699219 C 49.410156 15.613281 49.445313 15.53125 49.511719 15.46875 C 49.523438 15.449219 49.539063 15.4375 49.550781 15.433594 C 50.675781 14.804688 51.566406 14.117188 52.195313 13.390625 L 49.84375 13.390625 C 49.710938 13.390625 49.628906 13.304688 49.601563 13.144531 L 49.601563 13.078125 C 49.601563 12.839844 49.703125 12.761719 49.789063 12.738281 L 49.832031 12.726563 L 52.402344 12.722656 L 52.402344 5.765625 L 50.386719 5.765625 C 50.261719 5.765625 50.179688 5.683594 50.148438 5.523438 L 50.148438 5.46875 C 50.148438 5.214844 50.25 5.140625 50.335938 5.117188 L 50.378906 5.105469 L 52.402344 5.101563 L 52.402344 2.980469 C 52.402344 2.820313 52.46875 2.71875 52.601563 2.6875 L 52.640625 2.6875 C 52.816406 2.6875 52.878906 2.800781 52.898438 2.90625 L 52.914063 2.921875 L 52.914063 5.101563 L 56.003906 5.101563 L 56.003906 2.941406 C 56.003906 2.78125 56.074219 2.675781 56.203125 2.644531 L 56.242188 2.644531 C 56.417969 2.644531 56.480469 2.757813 56.5 2.859375 L 56.515625 2.878906 L 56.515625 5.101563 L 58.871094 5.101563 C 59 5.101563 59.078125 5.1875 59.101563 5.347656 L 59.101563 5.398438 C 59.101563 5.636719 59.015625 5.71875 58.933594 5.75 L 58.921875 5.765625 L 56.515625 5.765625 L 56.515625 12.722656 L 59.398438 12.722656 C 59.519531 12.722656 59.601563 12.808594 59.625 12.96875 L 59.625 13.023438 C 59.625 13.261719 59.539063 13.34375 59.457031 13.371094 L 59.445313 13.390625 L 55.949219 13.390625 C 56.53125 14.097656 57.429688 14.777344 58.632813 15.40625 C 58.796875 15.515625 58.792969 15.667969 58.761719 15.78125 L 58.757813 15.796875 C 58.707031 16.011719 58.613281 16.054688 58.539063 16.054688 C 58.519531 16.054688 58.492188 16.050781 58.46875 16.039063 L 58.441406 16.023438 C 56.976563 15.246094 55.917969 14.386719 55.296875 13.46875 L 55.289063 13.457031 L 55.269531 13.390625 L 52.867188 13.390625 C 52.859375 13.4375 52.84375 13.480469 52.816406 13.515625 C 52.167969 14.410156 51.136719 15.265625 49.738281 16.050781 C 49.699219 16.066406 49.675781 16.070313 49.648438 16.070313 "/>
<g clip-path="url(#clip1)" clip-rule="nonzero">
<path style=" stroke:none;fill-rule:nonzero;fill:rgb(13.699341%,9.399414%,8.198547%);fill-opacity:1;" d="M 66.09375 9.023438 L 66.09375 10.675781 L 71.128906 10.675781 C 71.332031 10.675781 71.472656 10.554688 71.542969 10.316406 L 71.542969 10.296875 L 71.574219 10.105469 L 71.597656 9.023438 Z M 71.621094 8.453125 L 71.628906 7.855469 C 71.628906 7.589844 71.535156 7.414063 71.351563 7.328125 C 71.324219 7.3125 71.289063 7.292969 71.253906 7.285156 L 66.53125 7.285156 C 66.324219 7.285156 66.1875 7.40625 66.125 7.648438 L 66.09375 7.855469 L 66.09375 8.453125 Z M 73.605469 15.214844 C 73.730469 15.242188 73.78125 15.339844 73.769531 15.507813 L 73.769531 15.519531 C 73.746094 15.667969 73.683594 15.75 73.574219 15.769531 L 73.523438 15.769531 C 70.921875 15.011719 69.316406 13.558594 68.710938 11.410156 L 68.710938 11.242188 L 66.09375 11.242188 L 66.09375 14.492188 L 68.570313 13.703125 C 68.695313 13.65625 68.769531 13.710938 68.808594 13.855469 L 68.816406 13.898438 C 68.855469 14.050781 68.820313 14.164063 68.722656 14.230469 L 68.710938 14.230469 L 68.703125 14.246094 L 68.691406 14.246094 C 66.84375 14.863281 65.324219 15.3125 64.125 15.589844 C 64.011719 15.617188 63.9375 15.558594 63.902344 15.410156 C 63.894531 15.390625 63.890625 15.375 63.890625 15.367188 C 63.871094 15.191406 63.914063 15.082031 64.019531 15.035156 L 64.039063 15.035156 C 64.539063 14.914063 65.078125 14.773438 65.65625 14.605469 L 65.65625 7.855469 C 65.65625 7.429688 65.796875 7.101563 66.082031 6.871094 C 66.214844 6.769531 66.367188 6.71875 66.53125 6.71875 L 68.648438 6.71875 L 68.648438 5.898438 C 68.648438 5.761719 68.703125 5.675781 68.808594 5.648438 L 68.839844 5.648438 C 68.96875 5.648438 69.042969 5.714844 69.0625 5.84375 L 69.074219 5.859375 L 69.074219 6.71875 L 71.214844 6.71875 C 71.539063 6.71875 71.789063 6.902344 71.960938 7.273438 C 72.03125 7.449219 72.070313 7.644531 72.070313 7.855469 L 72.015625 10.105469 C 72.007813 10.53125 71.859375 10.859375 71.566406 11.09375 L 71.554688 11.09375 C 71.410156 11.195313 71.261719 11.242188 71.105469 11.242188 L 69.128906 11.242188 C 69.304688 11.875 69.578125 12.421875 69.941406 12.894531 L 69.960938 12.921875 C 71.351563 12.515625 72.546875 12.011719 73.542969 11.410156 C 73.648438 11.328125 73.734375 11.355469 73.800781 11.496094 L 73.808594 11.519531 C 73.882813 11.6875 73.863281 11.8125 73.757813 11.898438 L 73.746094 11.910156 C 72.777344 12.492188 71.648438 12.988281 70.359375 13.398438 C 71.136719 14.203125 72.21875 14.808594 73.605469 15.214844 M 69.160156 3.246094 L 69.257813 3.316406 L 69.269531 3.332031 C 70.449219 5.144531 71.960938 6.429688 73.800781 7.1875 C 73.886719 7.234375 73.925781 7.316406 73.925781 7.425781 L 73.925781 7.511719 C 73.886719 7.675781 73.808594 7.753906 73.703125 7.746094 C 73.695313 7.746094 73.6875 7.742188 73.671875 7.730469 C 71.746094 6.925781 70.167969 5.582031 68.9375 3.691406 L 68.90625 3.625 C 67.472656 5.742188 65.851563 7.253906 64.050781 8.160156 C 63.9375 8.21875 63.855469 8.175781 63.804688 8.039063 L 63.804688 8.023438 C 63.789063 7.964844 63.785156 7.914063 63.785156 7.855469 C 63.785156 7.773438 63.8125 7.703125 63.871094 7.648438 L 63.902344 7.636719 C 65.789063 6.679688 67.464844 5.042969 68.925781 2.71875 C 68.96875 2.644531 69.015625 2.609375 69.0625 2.609375 C 69.105469 2.609375 69.152344 2.632813 69.203125 2.675781 C 69.308594 2.769531 69.335938 2.886719 69.289063 3.027344 L 69.269531 3.082031 "/>
<path style=" stroke:none;fill-rule:nonzero;fill:rgb(13.699341%,9.399414%,8.198547%);fill-opacity:1;" d="M 66.128906 8.40625 L 71.582031 8.40625 L 71.59375 7.855469 C 71.59375 7.609375 71.511719 7.449219 71.339844 7.375 C 71.308594 7.355469 71.28125 7.34375 71.25 7.332031 L 66.53125 7.335938 C 66.339844 7.335938 66.21875 7.441406 66.160156 7.664063 L 66.128906 7.867188 Z M 71.652344 8.5 L 66.054688 8.5 L 66.054688 7.859375 L 66.089844 7.640625 C 66.160156 7.371094 66.308594 7.238281 66.53125 7.238281 L 71.253906 7.238281 C 71.300781 7.25 71.335938 7.265625 71.367188 7.285156 C 71.566406 7.375 71.667969 7.566406 71.667969 7.859375 Z M 66.128906 10.625 L 71.128906 10.625 C 71.316406 10.625 71.441406 10.523438 71.507813 10.304688 L 71.507813 10.300781 L 71.539063 10.09375 L 71.558594 9.070313 L 66.128906 9.070313 Z M 71.128906 10.722656 L 66.054688 10.722656 L 66.054688 8.976563 L 71.636719 8.976563 L 71.613281 10.109375 L 71.582031 10.308594 L 71.582031 10.324219 L 71.578125 10.332031 C 71.5 10.59375 71.351563 10.722656 71.128906 10.722656 M 63.839844 8.027344 C 63.882813 8.136719 63.945313 8.164063 64.039063 8.117188 C 65.828125 7.21875 67.457031 5.695313 68.875 3.59375 L 68.910156 3.542969 L 68.96875 3.667969 C 70.1875 5.53125 71.777344 6.886719 73.683594 7.6875 C 73.699219 7.695313 73.703125 7.699219 73.703125 7.699219 C 73.761719 7.703125 73.84375 7.6875 73.890625 7.503906 L 73.890625 7.425781 C 73.890625 7.335938 73.855469 7.273438 73.785156 7.234375 C 71.949219 6.476563 70.417969 5.175781 69.238281 3.359375 L 69.234375 3.355469 L 69.101563 3.261719 L 69.238281 3.050781 L 69.257813 3.003906 C 69.296875 2.886719 69.273438 2.796875 69.183594 2.71875 C 69.089844 2.632813 69.023438 2.628906 68.953125 2.75 C 67.496094 5.070313 65.800781 6.726563 63.914063 7.679688 L 63.886719 7.691406 C 63.839844 7.738281 63.820313 7.789063 63.820313 7.859375 C 63.820313 7.90625 63.828125 7.957031 63.839844 8.007813 Z M 68.746094 11.402344 C 69.347656 13.519531 70.957031 14.972656 73.53125 15.726563 L 73.574219 15.722656 C 73.660156 15.707031 73.710938 15.640625 73.730469 15.511719 L 73.730469 15.507813 C 73.742188 15.363281 73.703125 15.289063 73.601563 15.261719 L 73.597656 15.261719 C 72.210938 14.855469 71.109375 14.238281 70.335938 13.433594 L 70.277344 13.375 L 70.347656 13.347656 C 71.628906 12.945313 72.765625 12.449219 73.726563 11.871094 L 73.730469 11.863281 C 73.796875 11.808594 73.855469 11.730469 73.777344 11.546875 L 73.765625 11.515625 C 73.742188 11.460938 73.710938 11.425781 73.675781 11.414063 C 73.644531 11.40625 73.605469 11.417969 73.5625 11.453125 C 72.558594 12.054688 71.351563 12.566406 69.96875 12.96875 L 69.949219 12.976563 L 69.914063 12.929688 C 69.550781 12.457031 69.273438 11.894531 69.09375 11.261719 L 69.074219 11.195313 L 71.105469 11.195313 C 71.257813 11.195313 71.402344 11.148438 71.535156 11.050781 L 71.554688 11.042969 C 71.832031 10.820313 71.972656 10.511719 71.976563 10.105469 L 72.03125 7.855469 C 72.03125 7.65625 71.996094 7.464844 71.925781 7.296875 C 71.765625 6.945313 71.523438 6.765625 71.214844 6.765625 L 69.039063 6.765625 L 69.035156 5.875 L 69.03125 5.867188 L 69.027344 5.851563 C 69.019531 5.785156 68.984375 5.699219 68.839844 5.699219 L 68.808594 5.699219 C 68.726563 5.71875 68.683594 5.78125 68.683594 5.898438 L 68.683594 6.765625 L 66.53125 6.765625 C 66.375 6.765625 66.230469 6.816406 66.101563 6.910156 C 65.828125 7.132813 65.691406 7.449219 65.691406 7.859375 L 65.691406 14.640625 L 65.664063 14.652344 C 65.105469 14.8125 64.5625 14.957031 64.046875 15.082031 L 64.023438 15.085938 C 63.96875 15.109375 63.902344 15.167969 63.925781 15.363281 C 63.925781 15.367188 63.925781 15.371094 63.933594 15.386719 C 63.96875 15.519531 64.023438 15.566406 64.117188 15.542969 C 65.316406 15.265625 66.851563 14.8125 68.683594 14.195313 L 68.6875 14.195313 L 68.695313 14.179688 L 68.714844 14.179688 C 68.789063 14.128906 68.8125 14.042969 68.78125 13.910156 L 68.773438 13.871094 C 68.742188 13.746094 68.683594 13.710938 68.582031 13.75 L 66.054688 14.554688 L 66.054688 11.195313 L 68.746094 11.195313 Z M 73.523438 15.816406 C 70.914063 15.058594 69.285156 13.582031 68.675781 11.425781 L 68.671875 11.410156 L 68.671875 11.289063 L 66.128906 11.289063 L 66.128906 14.433594 L 68.5625 13.65625 C 68.703125 13.601563 68.800781 13.667969 68.84375 13.839844 L 68.855469 13.882813 C 68.90625 14.109375 68.820313 14.21875 68.738281 14.273438 L 68.726563 14.277344 L 68.714844 14.292969 L 68.695313 14.292969 C 66.863281 14.90625 65.332031 15.359375 64.132813 15.636719 C 64 15.671875 63.910156 15.597656 63.867188 15.425781 C 63.859375 15.40625 63.851563 15.386719 63.851563 15.367188 C 63.824219 15.125 63.921875 15.027344 64.007813 14.988281 L 64.039063 14.988281 C 64.539063 14.867188 65.070313 14.722656 65.617188 14.566406 L 65.617188 7.859375 C 65.617188 7.546875 65.691406 7.28125 65.839844 7.070313 C 65.269531 7.519531 64.675781 7.898438 64.066406 8.207031 C 63.933594 8.273438 63.828125 8.21875 63.773438 8.058594 L 63.769531 8.03125 C 63.753906 7.96875 63.746094 7.914063 63.746094 7.859375 C 63.746094 7.757813 63.78125 7.675781 63.847656 7.609375 L 63.859375 7.601563 L 63.890625 7.589844 C 65.761719 6.644531 67.445313 4.996094 68.898438 2.691406 C 68.984375 2.535156 69.097656 2.523438 69.226563 2.636719 C 69.34375 2.742188 69.378906 2.886719 69.320313 3.042969 L 69.300781 3.101563 L 69.21875 3.234375 L 69.292969 3.296875 C 70.46875 5.097656 71.988281 6.390625 73.8125 7.144531 C 73.914063 7.199219 73.964844 7.296875 73.964844 7.425781 L 73.964844 7.523438 C 73.902344 7.761719 73.785156 7.800781 73.699219 7.792969 C 73.691406 7.792969 73.675781 7.789063 73.65625 7.773438 C 71.738281 6.972656 70.140625 5.609375 68.90625 3.722656 L 68.898438 3.703125 C 68.085938 4.898438 67.207031 5.90625 66.265625 6.71875 C 66.351563 6.683594 66.4375 6.667969 66.53125 6.667969 L 68.609375 6.667969 L 68.609375 5.898438 C 68.609375 5.738281 68.675781 5.632813 68.800781 5.601563 L 68.839844 5.601563 C 69.015625 5.601563 69.078125 5.71875 69.097656 5.820313 L 69.109375 5.839844 L 69.109375 6.667969 L 71.214844 6.667969 C 71.550781 6.667969 71.816406 6.863281 71.992188 7.25 C 72.066406 7.433594 72.105469 7.636719 72.105469 7.859375 L 72.050781 10.109375 C 72.042969 10.546875 71.886719 10.894531 71.585938 11.132813 L 71.574219 11.140625 L 71.5625 11.140625 C 71.421875 11.242188 71.265625 11.289063 71.105469 11.289063 L 69.183594 11.289063 C 69.355469 11.886719 69.621094 12.414063 69.96875 12.863281 L 69.972656 12.871094 C 71.34375 12.46875 72.539063 11.960938 73.527344 11.371094 C 73.585938 11.320313 73.644531 11.304688 73.695313 11.324219 C 73.746094 11.339844 73.792969 11.390625 73.832031 11.46875 L 73.84375 11.5 C 73.945313 11.738281 73.863281 11.871094 73.777344 11.941406 L 73.761719 11.953125 C 72.8125 12.523438 71.695313 13.015625 70.441406 13.421875 C 71.203125 14.1875 72.269531 14.773438 73.613281 15.167969 C 73.753906 15.199219 73.820313 15.320313 73.804688 15.511719 L 73.804688 15.519531 C 73.777344 15.699219 73.703125 15.796875 73.578125 15.816406 "/>
</g>
<path style=" stroke:none;fill-rule:nonzero;fill:rgb(13.699341%,9.399414%,8.198547%);fill-opacity:1;" d="M 29.960938 10.21875 L 25.5 10.21875 C 25.117188 10.21875 24.921875 10.46875 24.921875 10.972656 L 24.921875 13.996094 C 24.921875 14.570313 25.09375 14.824219 25.429688 14.75 L 29.960938 14.75 C 30.34375 14.824219 30.511719 14.570313 30.464844 13.996094 L 30.464844 10.972656 C 30.511719 10.46875 30.34375 10.21875 29.960938 10.21875 M 29.023438 4.601563 L 25.5 4.601563 C 25.164063 4.964844 24.878906 5.289063 24.636719 5.578125 C 25.546875 6.511719 26.410156 7.449219 27.226563 8.382813 C 28.570313 7.375 29.335938 6.296875 29.527344 5.144531 C 29.621094 4.785156 29.457031 4.601563 29.023438 4.601563 M 26.074219 2.878906 C 26.3125 2.808594 26.410156 2.949219 26.363281 3.308594 L 25.933594 3.957031 L 29.023438 3.957031 C 29.839844 3.957031 30.152344 4.460938 29.960938 5.46875 C 29.621094 6.980469 28.472656 8.347656 26.507813 9.570313 L 30.03125 9.570313 C 30.65625 9.570313 30.941406 9.964844 30.894531 10.757813 L 30.894531 14.101563 C 30.941406 15.039063 30.582031 15.472656 29.816406 15.398438 L 25.285156 15.398438 C 24.757813 15.472656 24.492188 15.039063 24.492188 14.101563 L 24.492188 10.433594 C 23.964844 10.578125 23.363281 10.6875 22.691406 10.757813 C 22.453125 10.542969 22.476563 10.324219 22.765625 10.109375 C 24.589844 9.824219 25.933594 9.355469 26.792969 8.707031 C 26.125 7.84375 25.285156 6.945313 24.273438 6.007813 C 23.894531 6.367188 23.464844 6.761719 22.980469 7.195313 C 22.691406 7.195313 22.644531 6.980469 22.835938 6.546875 C 24.132813 5.46875 25.210938 4.246094 26.074219 2.878906 "/>
<path style=" stroke:none;fill-rule:nonzero;fill:rgb(13.699341%,9.399414%,8.198547%);fill-opacity:1;" d="M 24.695313 5.574219 C 25.597656 6.503906 26.449219 7.429688 27.230469 8.324219 C 28.542969 7.332031 29.304688 6.261719 29.492188 5.136719 C 29.527344 5 29.527344 4.898438 29.484375 4.824219 C 29.421875 4.710938 29.265625 4.652344 29.023438 4.652344 L 25.511719 4.652344 C 25.195313 4.996094 24.917969 5.304688 24.695313 5.574219 M 27.222656 8.441406 L 27.203125 8.417969 C 26.40625 7.507813 25.535156 6.5625 24.613281 5.613281 L 24.582031 5.578125 L 24.609375 5.539063 C 24.847656 5.257813 25.136719 4.929688 25.476563 4.566406 L 25.484375 4.554688 L 29.023438 4.554688 C 29.296875 4.554688 29.464844 4.625 29.546875 4.769531 C 29.597656 4.867188 29.605469 5 29.5625 5.160156 C 29.371094 6.316406 28.589844 7.414063 27.246094 8.425781 Z M 25.5 10.265625 C 25.136719 10.265625 24.960938 10.496094 24.960938 10.972656 L 24.960938 13.996094 C 24.960938 14.304688 25.011719 14.519531 25.109375 14.625 C 25.183594 14.707031 25.289063 14.734375 25.421875 14.703125 L 29.960938 14.703125 C 30.128906 14.734375 30.253906 14.703125 30.328125 14.605469 C 30.417969 14.496094 30.453125 14.289063 30.425781 14.003906 L 30.425781 10.972656 C 30.449219 10.726563 30.421875 10.550781 30.34375 10.433594 C 30.265625 10.324219 30.136719 10.265625 29.960938 10.265625 Z M 25.320313 14.808594 C 25.214844 14.808594 25.128906 14.773438 25.0625 14.699219 C 24.945313 14.570313 24.886719 14.335938 24.886719 13.996094 L 24.886719 10.972656 C 24.886719 10.441406 25.09375 10.171875 25.5 10.171875 L 29.960938 10.171875 C 30.160156 10.171875 30.304688 10.238281 30.398438 10.371094 C 30.492188 10.507813 30.527344 10.710938 30.5 10.976563 L 30.5 13.996094 C 30.527344 14.3125 30.484375 14.542969 30.378906 14.675781 C 30.285156 14.792969 30.144531 14.832031 29.953125 14.796875 L 25.425781 14.796875 C 25.390625 14.804688 25.355469 14.808594 25.320313 14.808594 M 24.53125 10.371094 L 24.53125 14.101563 C 24.53125 14.625 24.613281 14.988281 24.78125 15.183594 C 24.902344 15.324219 25.070313 15.382813 25.28125 15.351563 L 29.816406 15.351563 C 30.203125 15.386719 30.480469 15.292969 30.652344 15.074219 C 30.808594 14.867188 30.882813 14.542969 30.859375 14.105469 L 30.855469 10.757813 C 30.882813 10.375 30.824219 10.089844 30.691406 9.90625 C 30.554688 9.714844 30.335938 9.617188 30.03125 9.617188 L 26.34375 9.617188 L 26.492188 9.527344 C 28.4375 8.316406 29.59375 6.945313 29.921875 5.457031 C 30.015625 4.976563 29.988281 4.609375 29.847656 4.371094 C 29.699219 4.128906 29.421875 4.003906 29.023438 4.003906 L 25.851563 4.003906 L 26.328125 3.289063 C 26.347656 3.121094 26.335938 3.007813 26.292969 2.953125 C 26.253906 2.90625 26.1875 2.894531 26.09375 2.921875 C 25.234375 4.277344 24.152344 5.511719 22.863281 6.582031 C 22.769531 6.800781 22.738281 6.964844 22.777344 7.050781 C 22.800781 7.113281 22.871094 7.148438 22.96875 7.148438 C 23.476563 6.691406 23.898438 6.304688 24.257813 5.96875 L 24.277344 5.949219 L 24.296875 5.96875 C 25.304688 6.902344 26.152344 7.8125 26.820313 8.671875 L 26.855469 8.714844 L 26.8125 8.746094 C 25.949219 9.394531 24.589844 9.867188 22.777344 10.15625 C 22.640625 10.261719 22.570313 10.363281 22.570313 10.457031 C 22.566406 10.539063 22.609375 10.621094 22.703125 10.707031 C 23.363281 10.636719 23.960938 10.53125 24.484375 10.386719 Z M 25.171875 15.453125 C 24.992188 15.453125 24.84375 15.386719 24.730469 15.253906 C 24.546875 15.039063 24.457031 14.652344 24.457031 14.101563 L 24.457031 10.492188 C 23.9375 10.628906 23.347656 10.734375 22.699219 10.804688 L 22.683594 10.804688 L 22.671875 10.796875 C 22.550781 10.683594 22.488281 10.570313 22.492188 10.453125 C 22.496094 10.320313 22.582031 10.195313 22.746094 10.066406 L 22.761719 10.0625 C 24.542969 9.78125 25.875 9.324219 26.734375 8.695313 C 26.078125 7.859375 25.253906 6.972656 24.277344 6.066406 C 23.921875 6.398438 23.503906 6.78125 23.003906 7.234375 L 22.992188 7.242188 L 22.980469 7.242188 C 22.84375 7.242188 22.753906 7.195313 22.710938 7.097656 C 22.65625 6.976563 22.6875 6.789063 22.804688 6.523438 L 22.816406 6.507813 C 24.101563 5.433594 25.191406 4.203125 26.046875 2.847656 L 26.054688 2.835938 L 26.066406 2.832031 C 26.191406 2.792969 26.28125 2.8125 26.339844 2.882813 C 26.40625 2.96875 26.425781 3.105469 26.398438 3.320313 L 26.398438 3.332031 L 26.390625 3.34375 L 26.011719 3.910156 L 29.023438 3.910156 C 29.445313 3.910156 29.742188 4.046875 29.902344 4.316406 C 30.0625 4.578125 30.09375 4.96875 29.996094 5.480469 C 29.667969 6.960938 28.546875 8.320313 26.667969 9.523438 L 30.03125 9.523438 C 30.355469 9.523438 30.597656 9.628906 30.746094 9.839844 C 30.894531 10.046875 30.957031 10.355469 30.929688 10.761719 L 30.929688 14.101563 C 30.957031 14.566406 30.878906 14.914063 30.703125 15.140625 C 30.515625 15.382813 30.21875 15.484375 29.8125 15.445313 L 25.285156 15.445313 C 25.246094 15.453125 25.207031 15.453125 25.171875 15.453125 "/>
<path style=" stroke:none;fill-rule:nonzero;fill:rgb(13.699341%,9.399414%,8.198547%);fill-opacity:1;" d="M 41.875 2.878906 C 42.152344 2.664063 42.289063 2.769531 42.289063 3.199219 L 42.042969 3.847656 L 45.449219 3.847656 C 45.726563 4.066406 45.726563 4.28125 45.449219 4.496094 L 43.207031 4.496094 C 43.425781 5.21875 43.5625 5.828125 43.621094 6.332031 C 43.511719 6.691406 43.34375 6.730469 43.121094 6.441406 C 43.011719 5.863281 42.847656 5.21875 42.625 4.496094 L 41.792969 4.496094 C 41.402344 5.359375 41.070313 5.96875 40.796875 6.332031 C 40.519531 6.476563 40.378906 6.367188 40.378906 6.007813 C 40.878906 5.21875 41.378906 4.171875 41.875 2.878906 M 39.796875 9.675781 C 39.796875 9.246094 39.9375 9.140625 40.214844 9.355469 C 40.714844 10.21875 41.238281 11.371094 41.792969 12.808594 C 41.792969 13.238281 41.652344 13.347656 41.378906 13.128906 C 40.820313 11.765625 40.296875 10.613281 39.796875 9.675781 M 43.457031 6.871094 C 43.621094 6.582031 43.789063 6.582031 43.953125 6.871094 L 43.953125 7.949219 L 45.617188 7.949219 C 45.890625 8.164063 45.890625 8.382813 45.617188 8.597656 L 43.953125 8.597656 L 43.953125 13.996094 C 44.007813 14.859375 43.730469 15.328125 43.121094 15.398438 C 42.234375 15.46875 41.378906 15.253906 40.546875 14.75 C 40.324219 14.390625 40.378906 14.175781 40.714844 14.101563 C 42.648438 15.039063 43.5625 14.964844 43.457031 13.886719 L 43.457031 8.597656 L 38.636719 8.597656 C 38.414063 8.382813 38.414063 8.164063 38.636719 7.949219 L 43.457031 7.949219 Z M 37.722656 2.984375 C 37.941406 2.699219 38.109375 2.734375 38.21875 3.09375 L 37.972656 3.847656 L 40.628906 3.847656 C 40.90625 4.066406 40.90625 4.28125 40.628906 4.496094 L 39.132813 4.496094 C 39.300781 5.074219 39.4375 5.683594 39.550781 6.332031 C 39.492188 6.761719 39.328125 6.835938 39.050781 6.546875 C 38.996094 6.1875 38.855469 5.503906 38.636719 4.496094 L 37.722656 4.496094 C 37.5 5.003906 37.167969 5.574219 36.726563 6.222656 C 36.390625 6.367188 36.253906 6.261719 36.308594 5.898438 C 36.972656 4.894531 37.445313 3.921875 37.722656 2.984375 M 37.886719 6.761719 C 38.164063 6.476563 38.332031 6.546875 38.386719 6.980469 C 38.21875 7.554688 38.023438 8.09375 37.804688 8.597656 L 37.804688 15.289063 C 37.636719 15.648438 37.472656 15.648438 37.304688 15.289063 L 37.304688 9.570313 C 36.972656 10.21875 36.527344 10.792969 35.976563 11.296875 C 35.753906 11.296875 35.671875 11.117188 35.726563 10.757813 C 36.777344 9.605469 37.5 8.273438 37.886719 6.761719 "/>
<path style=" stroke:none;fill-rule:nonzero;fill:rgb(13.699341%,9.399414%,8.198547%);fill-opacity:1;" d="M 43.15625 6.414063 C 43.257813 6.542969 43.34375 6.601563 43.410156 6.582031 C 43.476563 6.5625 43.535156 6.476563 43.585938 6.328125 C 43.527344 5.832031 43.390625 5.222656 43.171875 4.515625 L 43.152344 4.449219 L 45.4375 4.449219 C 45.558594 4.355469 45.617188 4.261719 45.617188 4.171875 C 45.617188 4.085938 45.558594 3.992188 45.4375 3.898438 L 41.984375 3.898438 L 42.253906 3.191406 C 42.253906 3 42.222656 2.878906 42.167969 2.835938 C 42.109375 2.796875 42.023438 2.820313 41.90625 2.914063 C 41.410156 4.195313 40.910156 5.242188 40.417969 6.027344 C 40.417969 6.171875 40.449219 6.269531 40.5 6.3125 C 40.554688 6.363281 40.648438 6.355469 40.773438 6.292969 C 41.046875 5.933594 41.378906 5.324219 41.761719 4.472656 L 41.773438 4.449219 L 42.648438 4.449219 L 42.65625 4.480469 C 42.878906 5.195313 43.046875 5.847656 43.15625 6.414063 M 43.382813 6.679688 C 43.296875 6.679688 43.203125 6.609375 43.097656 6.472656 L 43.089844 6.464844 L 43.085938 6.449219 C 42.980469 5.894531 42.816406 5.253906 42.597656 4.546875 L 41.8125 4.546875 C 41.429688 5.398438 41.09375 6.007813 40.824219 6.367188 L 40.808594 6.375 C 40.652344 6.457031 40.535156 6.464844 40.457031 6.394531 C 40.382813 6.328125 40.34375 6.199219 40.34375 6.007813 L 40.34375 5.992188 L 40.351563 5.976563 C 40.84375 5.195313 41.34375 4.144531 41.84375 2.855469 L 41.847656 2.84375 L 41.855469 2.835938 C 42.007813 2.71875 42.121094 2.691406 42.203125 2.753906 C 42.285156 2.816406 42.328125 2.960938 42.328125 3.203125 L 42.324219 3.222656 L 42.101563 3.800781 L 45.457031 3.800781 L 45.46875 3.808594 C 45.617188 3.925781 45.695313 4.046875 45.695313 4.171875 C 45.695313 4.300781 45.617188 4.417969 45.46875 4.539063 L 45.457031 4.546875 L 43.257813 4.546875 C 43.46875 5.238281 43.601563 5.839844 43.65625 6.324219 L 43.660156 6.339844 L 43.65625 6.351563 C 43.597656 6.539063 43.519531 6.648438 43.425781 6.675781 C 43.414063 6.679688 43.398438 6.679688 43.382813 6.679688 M 39.085938 6.523438 C 39.210938 6.648438 39.308594 6.699219 39.375 6.660156 C 39.441406 6.628906 39.488281 6.519531 39.511719 6.332031 C 39.402344 5.6875 39.261719 5.074219 39.097656 4.511719 L 39.082031 4.449219 L 40.621094 4.449219 C 40.738281 4.355469 40.800781 4.261719 40.800781 4.171875 C 40.800781 4.085938 40.738281 3.992188 40.621094 3.898438 L 37.914063 3.898438 L 38.179688 3.09375 C 38.132813 2.945313 38.074219 2.863281 38.007813 2.847656 C 37.941406 2.828125 37.851563 2.882813 37.753906 3.011719 C 37.476563 3.945313 37 4.921875 36.34375 5.921875 C 36.324219 6.054688 36.335938 6.148438 36.375 6.195313 C 36.425781 6.257813 36.539063 6.25 36.703125 6.183594 C 37.140625 5.542969 37.472656 4.964844 37.691406 4.472656 L 37.699219 4.449219 L 38.664063 4.449219 L 38.671875 4.484375 C 38.890625 5.488281 39.027344 6.15625 39.085938 6.523438 M 39.328125 6.769531 C 39.246094 6.769531 39.144531 6.707031 39.027344 6.582031 L 39.015625 6.574219 L 39.011719 6.554688 C 38.960938 6.207031 38.824219 5.53125 38.609375 4.546875 L 37.742188 4.546875 C 37.519531 5.039063 37.191406 5.617188 36.75 6.257813 L 36.746094 6.265625 L 36.734375 6.269531 C 36.535156 6.355469 36.402344 6.355469 36.328125 6.269531 C 36.261719 6.195313 36.246094 6.066406 36.273438 5.890625 L 36.273438 5.878906 L 36.28125 5.867188 C 36.941406 4.871094 37.414063 3.898438 37.6875 2.96875 L 37.695313 2.953125 C 37.820313 2.792969 37.925781 2.726563 38.023438 2.753906 C 38.117188 2.777344 38.195313 2.882813 38.253906 3.074219 L 38.257813 3.09375 L 38.027344 3.800781 L 40.636719 3.800781 L 40.648438 3.808594 C 40.800781 3.925781 40.875 4.046875 40.875 4.171875 C 40.875 4.300781 40.800781 4.417969 40.648438 4.539063 L 40.636719 4.546875 L 39.1875 4.546875 C 39.34375 5.09375 39.476563 5.691406 39.585938 6.320313 L 39.589844 6.332031 L 39.585938 6.339844 C 39.554688 6.570313 39.496094 6.707031 39.402344 6.75 C 39.378906 6.761719 39.355469 6.769531 39.328125 6.769531 M 41.40625 13.097656 C 41.523438 13.1875 41.613281 13.214844 41.667969 13.175781 C 41.722656 13.132813 41.757813 13.011719 41.757813 12.820313 C 41.207031 11.394531 40.679688 10.238281 40.1875 9.390625 C 40.066406 9.296875 39.980469 9.273438 39.925781 9.3125 C 39.867188 9.355469 39.835938 9.472656 39.835938 9.664063 C 40.328125 10.585938 40.855469 11.742188 41.40625 13.097656 M 41.609375 13.289063 C 41.539063 13.289063 41.457031 13.25 41.359375 13.171875 L 41.347656 13.164063 L 41.34375 13.152344 C 40.792969 11.789063 40.261719 10.628906 39.769531 9.703125 L 39.761719 9.691406 L 39.761719 9.675781 C 39.761719 9.441406 39.804688 9.292969 39.886719 9.230469 C 39.96875 9.167969 40.085938 9.199219 40.234375 9.3125 L 40.242188 9.324219 C 40.738281 10.179688 41.269531 11.34375 41.824219 12.789063 L 41.828125 12.808594 C 41.828125 13.046875 41.789063 13.191406 41.703125 13.257813 C 41.675781 13.277344 41.644531 13.289063 41.609375 13.289063 M 40.570313 14.710938 C 41.390625 15.207031 42.25 15.421875 43.121094 15.351563 C 43.710938 15.28125 43.96875 14.835938 43.917969 14 L 43.917969 8.550781 L 45.605469 8.550781 C 45.722656 8.457031 45.785156 8.359375 45.785156 8.277344 C 45.785156 8.1875 45.726563 8.09375 45.605469 7.996094 L 43.917969 7.996094 L 43.917969 6.886719 C 43.769531 6.644531 43.636719 6.644531 43.492188 6.886719 L 43.492188 7.996094 L 38.648438 7.996094 C 38.550781 8.09375 38.503906 8.183594 38.503906 8.277344 C 38.507813 8.363281 38.550781 8.457031 38.648438 8.550781 L 43.492188 8.550781 L 43.492188 13.886719 C 43.527344 14.207031 43.464844 14.453125 43.320313 14.605469 C 42.960938 14.976563 42.109375 14.828125 40.710938 14.152344 C 40.566406 14.183594 40.480469 14.246094 40.457031 14.328125 C 40.433594 14.417969 40.46875 14.546875 40.570313 14.710938 M 42.792969 15.460938 C 42.019531 15.460938 41.261719 15.234375 40.53125 14.792969 L 40.519531 14.78125 C 40.394531 14.578125 40.351563 14.421875 40.390625 14.292969 C 40.425781 14.171875 40.527344 14.09375 40.707031 14.054688 L 40.714844 14.054688 L 40.726563 14.058594 C 42.085938 14.714844 42.945313 14.875 43.273438 14.53125 C 43.402344 14.398438 43.449219 14.191406 43.417969 13.894531 L 43.417969 8.644531 L 38.625 8.644531 L 38.613281 8.636719 C 38.492188 8.519531 38.433594 8.398438 38.433594 8.277344 C 38.433594 8.152344 38.492188 8.03125 38.613281 7.910156 L 38.625 7.902344 L 43.417969 7.902344 L 43.417969 6.855469 L 43.425781 6.84375 C 43.605469 6.53125 43.804688 6.53125 43.980469 6.84375 L 43.988281 6.855469 L 43.988281 7.902344 L 45.625 7.902344 L 45.632813 7.910156 C 45.785156 8.027344 45.859375 8.148438 45.859375 8.277344 C 45.859375 8.402344 45.785156 8.519531 45.632813 8.636719 L 45.625 8.644531 L 43.988281 8.644531 L 43.988281 13.996094 C 44.046875 14.882813 43.757813 15.371094 43.125 15.445313 C 43.015625 15.457031 42.90625 15.460938 42.792969 15.460938 M 37.34375 15.277344 C 37.417969 15.433594 37.488281 15.511719 37.554688 15.511719 C 37.621094 15.511719 37.695313 15.433594 37.765625 15.277344 L 37.765625 8.585938 L 37.773438 8.574219 C 37.992188 8.082031 38.183594 7.542969 38.347656 6.976563 C 38.324219 6.792969 38.277344 6.683594 38.214844 6.648438 C 38.144531 6.613281 38.046875 6.664063 37.917969 6.792969 C 37.53125 8.292969 36.804688 9.636719 35.761719 10.78125 C 35.734375 10.960938 35.746094 11.085938 35.792969 11.160156 C 35.828125 11.214844 35.886719 11.246094 35.964844 11.25 C 36.507813 10.75 36.949219 10.179688 37.273438 9.542969 L 37.34375 9.414063 Z M 37.554688 15.609375 C 37.457031 15.609375 37.367188 15.511719 37.273438 15.316406 L 37.269531 15.300781 L 37.269531 9.722656 C 36.945313 10.324219 36.515625 10.863281 35.996094 11.335938 L 35.988281 11.34375 L 35.976563 11.34375 C 35.867188 11.34375 35.785156 11.300781 35.734375 11.222656 C 35.671875 11.121094 35.65625 10.964844 35.691406 10.746094 L 35.695313 10.730469 L 35.703125 10.71875 C 36.746094 9.578125 37.46875 8.242188 37.851563 6.746094 L 37.855469 6.734375 L 37.863281 6.726563 C 38.019531 6.566406 38.140625 6.511719 38.238281 6.558594 C 38.332031 6.605469 38.390625 6.742188 38.421875 6.972656 L 38.425781 6.984375 L 38.417969 6.996094 C 38.253906 7.570313 38.058594 8.109375 37.839844 8.609375 L 37.839844 15.300781 L 37.835938 15.316406 C 37.746094 15.511719 37.652344 15.609375 37.554688 15.609375 "/>
<g clip-path="url(#clip2)" clip-rule="nonzero">
<path style=" stroke:none;fill-rule:nonzero;fill:rgb(13.699341%,9.399414%,8.198547%);fill-opacity:1;" d="M 7.515625 23.125 C 5.996094 23.132813 4.472656 23.136719 2.953125 23.144531 C 3.171875 23.429688 3.390625 23.714844 3.609375 23.996094 C 3.601563 20.414063 3.59375 16.832031 3.589844 13.253906 C 3.585938 11.738281 3.574219 10.222656 3.582031 8.707031 C 3.582031 7.886719 3.882813 7.074219 4.582031 7.066406 C 5.070313 7.058594 5.554688 7.058594 6.046875 7.058594 C 7.851563 7.050781 9.660156 7.042969 11.46875 7.035156 C 12.179688 7.03125 12.890625 7.03125 13.601563 7.027344 C 14.007813 7.027344 14.441406 6.9375 14.769531 7.3125 C 15.300781 7.929688 15.148438 9.152344 15.152344 9.984375 C 15.152344 10.949219 15.164063 11.917969 15.15625 12.882813 C 15.148438 13.730469 14.769531 14.414063 14.105469 14.417969 C 13.617188 14.425781 13.128906 14.425781 12.644531 14.425781 C 9.480469 14.4375 6.324219 14.453125 3.164063 14.464844 C 3.089844 14.464844 3.011719 14.464844 2.9375 14.464844 C 2.089844 14.46875 2.089844 16.175781 2.9375 16.167969 L 12.011719 16.132813 C 12.636719 16.128906 13.261719 16.128906 13.886719 16.125 C 14.597656 16.121094 15.273438 15.953125 15.785156 15.230469 C 16.496094 14.230469 16.46875 13.003906 16.464844 11.742188 C 16.464844 10.683594 16.476563 9.625 16.460938 8.570313 C 16.433594 6.898438 15.582031 5.371094 14.222656 5.320313 C 13.824219 5.304688 13.425781 5.324219 13.03125 5.324219 C 11.164063 5.332031 9.300781 5.339844 7.4375 5.347656 C 6.671875 5.351563 5.90625 5.355469 5.140625 5.355469 C 4.5625 5.359375 4.011719 5.328125 3.484375 5.710938 C 2.46875 6.441406 2.265625 7.851563 2.269531 9.21875 L 2.273438 12.660156 C 2.28125 16.304688 2.289063 19.949219 2.296875 23.59375 L 2.296875 23.996094 C 2.296875 24.457031 2.59375 24.851563 2.953125 24.851563 C 4.472656 24.84375 5.996094 24.835938 7.515625 24.832031 C 8.363281 24.828125 8.363281 23.121094 7.515625 23.125 "/>
</g>
<path style=" stroke:none;fill-rule:nonzero;fill:rgb(13.699341%,9.399414%,8.198547%);fill-opacity:1;" d="M 5.324219 11.59375 L 13.425781 11.59375 C 14.273438 11.59375 14.273438 9.890625 13.425781 9.890625 L 5.324219 9.890625 C 4.480469 9.890625 4.476563 11.59375 5.324219 11.59375 "/>
<path style=" stroke:none;fill-rule:nonzero;fill:rgb(13.699341%,9.399414%,8.198547%);fill-opacity:1;" d="M 9.855469 5.964844 L 9.855469 3.746094 C 9.855469 2.648438 8.539063 2.644531 8.539063 3.746094 L 8.539063 5.964844 "/>
<g clip-path="url(#clip3)" clip-rule="nonzero">
<path style=" stroke:none;fill-rule:nonzero;fill:rgb(13.699341%,9.399414%,8.198547%);fill-opacity:1;" d="M 3.398438 16.238281 C 3.605469 16.242188 3.816406 16.261719 4.023438 16.289063 C 4.125 16.300781 4.222656 16.316406 4.324219 16.332031 C 4.507813 16.359375 4.183594 16.300781 4.375 16.339844 C 4.4375 16.347656 4.496094 16.363281 4.554688 16.375 C 4.832031 16.429688 5.109375 16.503906 5.382813 16.585938 C 6.535156 16.953125 7.78125 17.597656 8.457031 18.925781 C 8.898438 19.800781 8.960938 20.859375 9.296875 21.800781 C 9.628906 22.726563 10.148438 23.523438 10.796875 24.105469 C 11.421875 24.671875 11.988281 24.851563 12.726563 24.851563 L 16.089844 24.851563 C 16.9375 24.851563 16.9375 23.144531 16.089844 23.144531 L 12.417969 23.144531 C 12.359375 23.144531 12.289063 23.132813 12.226563 23.144531 C 12.089844 23.175781 12.335938 23.171875 12.335938 23.171875 C 12.28125 23.109375 12.105469 23.085938 12.035156 23.054688 C 12.003906 23.039063 11.871094 22.960938 12.027344 23.050781 C 11.976563 23.023438 11.929688 22.996094 11.882813 22.964844 C 11.757813 22.878906 11.632813 22.785156 11.515625 22.683594 C 11.042969 22.28125 10.59375 21.511719 10.367188 20.738281 C 10.066406 19.71875 9.964844 18.703125 9.449219 17.804688 C 8.605469 16.34375 7.3125 15.496094 5.980469 15.027344 C 5.148438 14.734375 4.261719 14.542969 3.398438 14.53125 C 2.554688 14.523438 2.554688 16.226563 3.398438 16.238281 "/>
</g>
<path style=" stroke:none;fill-rule:nonzero;fill:rgb(13.699341%,9.399414%,8.198547%);fill-opacity:1;" d="M 14.59375 21.003906 C 14.683594 21.050781 14.75 21.164063 14.75 21.292969 C 14.75 21.46875 14.640625 21.609375 14.511719 21.609375 L 13.222656 21.609375 C 13.089844 21.609375 12.980469 21.46875 12.980469 21.292969 C 12.980469 21.164063 13.046875 21.050781 13.136719 21.003906 C 12.417969 20.632813 11.914063 19.722656 11.914063 18.65625 L 15.816406 18.65625 C 15.816406 19.722656 15.3125 20.632813 14.59375 21.003906 "/>
<path style=" stroke:none;fill-rule:nonzero;fill:rgb(13.699341%,9.399414%,8.198547%);fill-opacity:1;" d="M 14.578125 21.046875 C 14.796875 21.191406 14.722656 21.53125 14.488281 21.5625 C 14.449219 21.566406 14.40625 21.5625 14.367188 21.5625 L 13.378906 21.5625 C 13.335938 21.5625 13.285156 21.566406 13.242188 21.5625 C 13.007813 21.53125 12.933594 21.191406 13.152344 21.046875 C 13.183594 21.023438 13.171875 20.972656 13.144531 20.957031 C 12.726563 20.730469 12.382813 20.332031 12.167969 19.8125 C 12.078125 19.574219 12.007813 19.320313 11.976563 19.0625 C 11.96875 18.984375 11.960938 18.90625 11.957031 18.832031 C 11.957031 18.820313 11.949219 18.648438 11.914063 18.703125 C 11.917969 18.699219 11.9375 18.707031 11.941406 18.703125 C 12.03125 18.65625 12.203125 18.703125 12.296875 18.703125 L 14.582031 18.703125 C 14.96875 18.703125 15.359375 18.671875 15.742188 18.703125 C 15.757813 18.703125 15.785156 18.695313 15.792969 18.703125 C 15.84375 18.734375 15.773438 18.628906 15.78125 18.726563 C 15.800781 19.039063 15.707031 19.410156 15.605469 19.691406 C 15.402344 20.269531 15.035156 20.714844 14.585938 20.957031 C 14.542969 20.980469 14.5625 21.074219 14.605469 21.050781 C 15.359375 20.644531 15.84375 19.714844 15.851563 18.65625 C 15.851563 18.628906 15.835938 18.605469 15.816406 18.605469 L 11.914063 18.605469 C 11.894531 18.605469 11.878906 18.628906 11.878906 18.65625 C 11.890625 19.714844 12.371094 20.644531 13.125 21.050781 C 13.121094 21.019531 13.117188 20.988281 13.117188 20.960938 C 12.851563 21.144531 12.917969 21.625 13.222656 21.65625 C 13.433594 21.675781 13.652344 21.65625 13.863281 21.65625 C 14.078125 21.65625 14.296875 21.675781 14.507813 21.65625 C 14.808594 21.625 14.882813 21.144531 14.613281 20.960938 C 14.574219 20.933594 14.535156 21.015625 14.578125 21.046875 "/>
<g clip-path="url(#clip4)" clip-rule="nonzero">
<path style=" stroke:none;fill-rule:nonzero;fill:rgb(13.699341%,9.399414%,8.198547%);fill-opacity:1;" d="M 1.3125 24.042969 L 1.3125 7.480469 C 1.3125 6.59375 1.308594 5.707031 1.3125 4.820313 C 1.3125 3.332031 1.976563 1.707031 3.253906 1.679688 C 5.171875 1.636719 7.085938 1.679688 9.003906 1.679688 C 11.125 1.679688 13.253906 1.742188 15.375 1.679688 L 15.492188 1.679688 C 16.320313 1.679688 16.320313 0.0078125 15.492188 0.0078125 L 9.886719 0.0078125 C 7.710938 0.0078125 5.53125 -0.0078125 3.355469 0.0078125 C 1.683594 0.015625 0.351563 1.664063 0.0859375 3.78125 C -0.0117188 4.59375 0.0234375 5.433594 0.0234375 6.25 L 0.0234375 16.183594 C 0.0234375 18.753906 -0.0273438 21.339844 0.0234375 23.910156 L 0.0234375 24.042969 C 0.0234375 25.117188 1.3125 25.121094 1.3125 24.042969 "/>
</g>
</g>
</svg>
